<?xml version="1.0" encoding="utf-8"?>
<!-- Generator: Adobe Illustrator 21.1.0, SVG Export Plug-In . SVG Version: 6.00 Build 0)  -->
<!DOCTYPE svg PUBLIC "-//W3C//DTD SVG 1.1//EN" "http://www.w3.org/Graphics/SVG/1.1/DTD/svg11.dtd">
<svg version="1.1" id="Calque_1" xmlns="http://www.w3.org/2000/svg" xmlns:xlink="http://www.w3.org/1999/xlink" x="0px" y="0px"
	 viewBox="0 0 151.8 175.6" style="enable-background:new 0 0 151.8 175.6;" xml:space="preserve">
<style type="text/css">
	.st0{fill:#FDCD2D;}
</style>
<path class="st0" d="M75.9,175.6l-63.6-51.2C4.7,120.1,0,112.1,0,103.3V51.4c0-9,5-17.2,12.9-21.4L64.5,2.8c7.1-3.8,15.6-3.8,22.7,0
	L138.8,30c7.9,4.2,12.9,12.3,13,21.3l0,0.1v51.9c0,8.7-4.7,16.7-12.3,21L75.9,175.6z M75.9,14c-1.6,0-3.3,0.4-4.8,1.2L19.5,42.4
	c-3.4,1.8-5.5,5.2-5.5,9v51.9c0,3.8,2.1,7.2,5.5,9l0.6,0.3l55.8,45l55.8-45l0.6-0.3c3.4-1.8,5.5-5.3,5.5-9V51.5
	c-0.1-3.8-2.2-7.3-5.6-9.1l0,0L80.6,15.2C79.1,14.4,77.5,14,75.9,14z"/>
<path class="st0" d="M92.7,50.4v-2.5c0-5.6-1.3-9.5-4-11.7c-2.8-2.4-6.9-3.1-12.7-2.3l-16.3,2.4c-0.2,0-0.4,0.2-0.4,0.5v68.8
	c0,0.1,0.1,0.3,0.2,0.4c0.1,0.1,0.2,0.1,0.3,0.1c0,0,0,0,0.1,0l17-2.5c11.1-1.6,16.9-8.3,16.9-19.2v-5.6c0-7.5-2.4-12-7.3-13.8
	C90.7,62,92.7,57.4,92.7,50.4z M71.2,45.6l4.7-0.6c1.5-0.2,2.7,0,3.4,0.6c1,0.9,1.4,2.5,1.4,5.1v3.9c0,4.7-1.8,7.1-6,7.6l-3.7,0.5
	V45.6H71.2z M81.9,85.8c0,4.5-1.5,6.6-5.2,7.1l-5.6,0.8v-20l4.3-0.6c2.3-0.3,3.8-0.1,4.7,0.8c1.1,1,1.6,2.9,1.6,6.1v5.9H81.9z"/>
<polygon class="st0" points="93.8,106.2 58,111.4 58,125.8 93.8,120.6 "/>
</svg>
